<svg width="489" height="500" viewBox="0 0 489 500" fill="none" xmlns="http://www.w3.org/2000/svg">
<path fill-rule="evenodd" clip-rule="evenodd" d="M462.176 49.824H145.824V432.176H462.176V49.824ZM145 49V433H463V49H145Z" fill="#CBD6E8"/>
<path fill-rule="evenodd" clip-rule="evenodd" d="M475.176 61.824H158.824V444.176H475.176V61.824ZM158 61V445H476V61H158Z" fill="#CBD6E8"/>
<path fill-rule="evenodd" clip-rule="evenodd" d="M488.176 75.824H171.824V458.176H488.176V75.824ZM171 75V459H489V75H171Z" fill="#CBD6E8"/>
<path d="M133 418H215V500H133V418Z" fill="#F9DED8"/>
<path d="M93 378H134V419H93V378Z" fill="#81AFC8"/>
<path opacity="0.1" d="M216 459H236V439H216V459Z" fill="#4F46BA"/>
<path fill-rule="evenodd" clip-rule="evenodd" d="M106.666 448.783C106.34 449.083 105.84 449.07 105.529 448.756L97.8712 441.012L91.4496 447.506C91.1278 447.831 90.6061 447.831 90.2843 447.506L83.8627 441.012L77.441 447.506C77.1192 447.831 76.5975 447.831 76.2757 447.506L69.8541 441.012L63.4325 447.506C63.1107 447.831 62.5889 447.831 62.2671 447.506L55.8455 441.012L49.4239 447.506C49.1021 447.831 48.5803 447.831 48.2585 447.506L41.8369 441.012L35.4153 447.506C35.0935 447.831 34.5717 447.831 34.2499 447.506L27.8283 441.012L21.4067 447.506C21.0849 447.831 20.5632 447.831 20.2414 447.506C19.9195 447.18 19.9195 446.653 20.2414 446.327L27.2456 439.244C27.5675 438.919 28.0892 438.919 28.411 439.244L34.8326 445.738L41.2542 439.244C41.576 438.919 42.0978 438.919 42.4196 439.244L48.8412 445.738L55.2628 439.244C55.5846 438.919 56.1064 438.919 56.4282 439.244L62.8498 445.738L69.2714 439.244C69.5932 438.919 70.1149 438.919 70.4368 439.244L76.8584 445.738L83.28 439.244C83.6018 438.919 84.1235 438.919 84.4453 439.244L90.8669 445.738L97.2886 439.244C97.6104 438.919 98.1321 438.919 98.4539 439.244L106.139 447.016L114.622 439.217C114.958 438.907 115.48 438.932 115.786 439.273C116.092 439.613 116.067 440.14 115.73 440.45L106.666 448.783Z" fill="#E6EFFF"/>
<path d="M16 446.5C16 444.015 18.2386 442 21 442C23.7614 442 26 444.015 26 446.5C26 448.985 23.7614 451 21 451C18.2386 451 16 448.985 16 446.5Z" fill="#002F86"/>
<path fill-rule="evenodd" clip-rule="evenodd" d="M21 443.5C19.1591 443.5 17.6667 444.843 17.6667 446.5C17.6667 448.157 19.1591 449.5 21 449.5C22.8409 449.5 24.3333 448.157 24.3333 446.5C24.3333 444.843 22.8409 443.5 21 443.5ZM21 442C18.2386 442 16 444.015 16 446.5C16 448.985 18.2386 451 21 451C23.7614 451 26 448.985 26 446.5C26 444.015 23.7614 442 21 442Z" fill="white"/>
<path d="M110 440C110 437.239 112.239 435 115 435C117.761 435 120 437.239 120 440C120 442.761 117.761 445 115 445C112.239 445 110 442.761 110 440Z" fill="#002F86"/>
<path fill-rule="evenodd" clip-rule="evenodd" d="M115 436.667C113.159 436.667 111.667 438.159 111.667 440C111.667 441.841 113.159 443.333 115 443.333C116.841 443.333 118.333 441.841 118.333 440C118.333 438.159 116.841 436.667 115 436.667ZM115 435C112.239 435 110 437.239 110 440C110 442.761 112.239 445 115 445C117.761 445 120 442.761 120 440C120 437.239 117.761 435 115 435Z" fill="white"/>
<path fill-rule="evenodd" clip-rule="evenodd" d="M90.6659 464.805C90.3404 465.074 89.8399 465.063 89.5289 464.78L81.8712 457.811L75.4496 463.655C75.1278 463.948 74.6061 463.948 74.2843 463.655L67.8627 457.811L61.441 463.655C61.1192 463.948 60.5975 463.948 60.2757 463.655L53.8541 457.811L47.4325 463.655C47.1107 463.948 46.5889 463.948 46.2671 463.655L39.8455 457.811L33.4239 463.655C33.1021 463.948 32.5803 463.948 32.2585 463.655L25.8369 457.811L19.4153 463.655C19.0935 463.948 18.5717 463.948 18.2499 463.655L11.8283 457.811L5.40672 463.655C5.08491 463.948 4.56316 463.948 4.24135 463.655C3.91955 463.362 3.91955 462.888 4.24135 462.595L11.2456 456.22C11.5675 455.927 12.0892 455.927 12.411 456.22L18.8326 462.064L25.2542 456.22C25.576 455.927 26.0978 455.927 26.4196 456.22L32.8412 462.064L39.2628 456.22C39.5846 455.927 40.1064 455.927 40.4282 456.22L46.8498 462.064L53.2714 456.22C53.5932 455.927 54.1149 455.927 54.4368 456.22L60.8584 462.064L67.28 456.22C67.6018 455.927 68.1235 455.927 68.4453 456.22L74.8669 462.064L81.2886 456.22C81.6104 455.927 82.1321 455.927 82.4539 456.22L90.1387 463.214L98.6217 456.195C98.9584 455.916 99.4796 455.939 99.7857 456.246C100.092 456.552 100.067 457.026 99.7303 457.305L90.6659 464.805Z" fill="#E6EFFF"/>
<path d="M-7.54979e-07 463C-5.13568e-07 460.239 2.23858 458 5 458C7.76142 458 10 460.239 10 463C10 465.761 7.76142 468 5 468C2.23858 468 -9.9639e-07 465.761 -7.54979e-07 463Z" fill="#002F86"/>
<path fill-rule="evenodd" clip-rule="evenodd" d="M5 459.667C3.15905 459.667 1.66667 461.159 1.66667 463C1.66667 464.841 3.15905 466.333 5 466.333C6.84095 466.333 8.33333 464.841 8.33333 463C8.33333 461.159 6.84095 459.667 5 459.667ZM5 458C2.23858 458 -5.13568e-07 460.239 -7.54979e-07 463C-9.9639e-07 465.761 2.23858 468 5 468C7.76142 468 10 465.761 10 463C10 460.239 7.76142 458 5 458Z" fill="white"/>
<path d="M94 456C94 453.239 96.0147 451 98.5 451C100.985 451 103 453.239 103 456C103 458.761 100.985 461 98.5 461C96.0147 461 94 458.761 94 456Z" fill="#002F86"/>
<path fill-rule="evenodd" clip-rule="evenodd" d="M98.5 452.667C96.8431 452.667 95.5 454.159 95.5 456C95.5 457.841 96.8431 459.333 98.5 459.333C100.157 459.333 101.5 457.841 101.5 456C101.5 454.159 100.157 452.667 98.5 452.667ZM98.5 451C96.0147 451 94 453.239 94 456C94 458.761 96.0147 461 98.5 461C100.985 461 103 458.761 103 456C103 453.239 100.985 451 98.5 451Z" fill="white"/>
<path d="M423 54H443V34H423V54Z" fill="#1B1C31"/>
<path d="M403 34H423V14H403V34Z" fill="#FF7F5C"/>
<path d="M443 34H476V6.55651e-07H443V34Z" fill="#81AFC8"/>
</svg>
