<svg width="40" height="40" viewBox="0 0 40 40" fill="none" xmlns="http://www.w3.org/2000/svg">
<path d="M40 20C40 25.3043 37.8929 30.3914 34.1421 34.1421C30.3914 37.8929 25.3043 40 20 40C14.6957 40 9.60859 37.8929 5.85786 34.1421C2.10714 30.3914 1.75244e-07 25.3043 2.38498e-07 20C3.01751e-07 14.6957 2.10714 9.60859 5.85786 5.85786C9.60859 2.10714 14.6957 -3.01751e-07 20 -2.38498e-07C25.3043 -1.75244e-07 30.3914 2.10714 34.1421 5.85786C37.8929 9.60859 40 14.6957 40 20V20ZM21.25 11.25C21.25 10.9185 21.1183 10.6005 20.8839 10.3661C20.6495 10.1317 20.3315 10 20 10C19.6685 10 19.3505 10.1317 19.1161 10.3661C18.8817 10.6005 18.75 10.9185 18.75 11.25L18.75 25.7325L13.385 20.365C13.2688 20.2488 13.1308 20.1566 12.979 20.0937C12.8271 20.0308 12.6644 19.9984 12.5 19.9984C12.3356 19.9984 12.1729 20.0308 12.021 20.0937C11.8692 20.1566 11.7312 20.2488 11.615 20.365C11.4988 20.4812 11.4066 20.6192 11.3437 20.771C11.2808 20.9229 11.2484 21.0856 11.2484 21.25C11.2484 21.4144 11.2808 21.5771 11.3437 21.729C11.4066 21.8808 11.4988 22.0188 11.615 22.135L19.115 29.635C19.2311 29.7514 19.3691 29.8438 19.5209 29.9068C19.6728 29.9698 19.8356 30.0022 20 30.0022C20.1644 30.0022 20.3272 29.9698 20.4791 29.9068C20.6309 29.8438 20.7689 29.7514 20.885 29.635L28.385 22.135C28.6197 21.9003 28.7516 21.5819 28.7516 21.25C28.7516 20.9181 28.6197 20.5997 28.385 20.365C28.1503 20.1303 27.8319 19.9984 27.5 19.9984C27.1681 19.9984 26.8497 20.1303 26.615 20.365L21.25 25.7325L21.25 11.25Z" fill="url(#paint0_linear_577_1226)"/>
<defs>
<linearGradient id="paint0_linear_577_1226" x1="40" y1="20" x2="2.38498e-07" y2="20" gradientUnits="userSpaceOnUse">
<stop stop-color="#011054"/>
<stop offset="1" stop-color="#1344A4"/>
</linearGradient>
</defs>
</svg>
